<?xml version="1.0" standalone="no"?>
<!DOCTYPE svg PUBLIC "-//W3C//DTD SVG 1.1//EN"
"http://www.w3.org/Graphics/SVG/1.1/DTD/svg11.dtd">
<svg width="100%" height="100%" version="1.1"
xmlns="http://www.w3.org/2000/svg"
xmlns:xlink="http://www.w3.org/1999/xlink">
<polyline points="85.3267,767.973 426.727,341.223 682.777,426.573 938.827,255.873" style="fill-opacity:0.5;fill:rgb(153,204,0);stroke:rgb(153,204,0);stroke-width:2;fill:none"/>
<g fill-rule="evenodd"><path d="M 456.196,441.013 L 151.974,821.291 L 141.703,832.054 L 129.719,840.87 L 116.386,847.471 L 102.109,851.657 L 87.3229,853.3 L 72.4757,852.35 L 58.0191,848.837 L 44.3921,842.866 L 32.0089,834.62 L 21.2458,824.349 L 12.4297,812.365 L 5.82858,799.033 L 1.64294,784.756 L 1.42109e-14,769.969 L 0.949664,755.122 L 4.46308,740.666 L 10.4335,727.039 L 18.6795,714.656 L 360.08,287.905 L 370.315,277.174 L 382.253,268.376 L 395.534,261.777 L 409.756,257.577 L 424.491,255.902 L 439.294,256.803 L 453.717,260.253 L 670.166,332.403 L 891.483,184.858 L 904.534,177.715 L 918.627,172.948 L 933.334,170.7 L 948.207,171.04 L 962.796,173.958 L 976.656,179.365 L 989.367,187.096 L 1000.54,196.917 L 1009.84,208.529 L 1016.98,221.58 L 1021.75,235.673 L 1024,250.38 L 1023.66,265.254 L 1020.74,279.842 L 1015.34,293.703 L 1007.6,306.413 L 997.783,317.589 L 986.171,326.889 L 730.121,497.589 L 718.851,503.925 L 706.753,508.486 L 694.106,511.168 L 681.198,511.909 L 668.327,510.691 L 655.787,507.543 L 456.196,441.013 z " style="fill-opacity:0.5;fill:rgb(204,153,0);stroke:rgb(202,153,0);stroke-width:2"/></g>
</svg>
